<svg xmlns="http://www.w3.org/2000/svg" viewBox="0 0 510 510">
  <g id="Layer_2" data-name="Layer 2">
    <g id="Layer_1-2" data-name="Layer 1">
      <path d="M235.087,236.115c1.423-2.538,4.041-4.145,5.956-6.336,8.464-9.686.735-26.311-2.353-35.791a15.719,15.719,0,0,0-12.276-10.9c-11.1-1.707-15.688,9.744-17.624,19.183-4.8,23.408-27.233,17.533-26.248,42.074l.021.508c.467,10.642-13.463,14.955-19.014,5.863-8.057-13.2-16.077-26.421-21.578-40.82-11.212-29.349-7.28-69.327,20.918-83.18,14.785-7.264,32.189-5.373,48.53-7.45s34.6-11.359,36.364-27.737l-8.819-9.633c8.385-3.483,12.913-14.2,9.568-22.64C243.7,47.058,207.426,30,195.754,37.891,185.5,44.824,180.024,57.3,169.731,64.168c-16.008,10.684-37.574,4.582-56.39,8.628-16.38,3.522-29.293,14.295-39.765,27.716A14.036,14.036,0,0,1,71.3,96.13c-1.62-5.237-1.809-10.681-1.715-16.182-4.031,4.258-7.93,8.685-11.66,13.224A253.9,253.9,0,0,0,.226,244.159q6.64-10.54,13.243-21.061,10.743,7.123,21.5,14.267h0a84.358,84.358,0,0,0,12.351,24.8,9.547,9.547,0,0,0-2.642,2.1c-3.565,4.128-3.95,10.145-3.127,15.537s2.667,10.635,2.916,16.083c.248,5.407-1.086,10.874-.134,16.2,1.8,10.1,12.876,17.513,22.9,15.341s17.031-13.508,14.493-23.446c4.259,3.987,11.936.139,13.516-5.477a16.253,16.253,0,0,0-.637-9.69c8.628.417,17.406-.044,25.284,3.521l.032.059a24.561,24.561,0,0,0,2.089,14.92c-6.093,4.836-11.622,10.888-13.79,18.359s-.192,16.526,6.214,20.938a11.252,11.252,0,0,0,1,.6,14.19,14.19,0,0,0,4.214,3.688c9.26,5.237,22.833-1.357,24.438-11.874,5.277,15.754,30.619,15.222,40.4,1.791,5.227-7.179,6.965-15.89,6.571-24.815,12.226.484,36.447-37.52,26.192-43.166,6.292,3.464,12.942,7.032,20.389,5.752,4.324-.743,8.185-3.506,9.535-7.681C251.311,258.114,228.73,247.455,235.087,236.115ZM163.339,363.93l-.709,1.508-14.917-7.983c-5.569,6.535-11.213,13.185-14.741,21.013s-4.717,17.135-1.186,24.962a22.8,22.8,0,0,0,43.571-8.393,16.755,16.755,0,0,0-12.018-31.107ZM437.044,162.854c-2.574-8.985-9.94-16.142-11.837-25.294-1.242-6,.007-12.186.36-18.3,1.291-22.377-35.88-26.3-52.15-17.9-8.42,4.347-13.867,13.315-15.424,22.662s.409,19,3.972,27.784a79.294,79.294,0,0,0,29.346,35.947c6.515,4.335,14,7.763,21.828,7.584C428.647,194.981,441.316,177.767,437.044,162.854ZM281.4,152.487a17.988,17.988,0,0,0-.373-21.63c-14.118-17.252-29.351,4.545-40.82,12.307-6.644,4.5-13.057,12.682-9.416,19.831,2.529,4.963,8.69,6.68,12.87,10.361,7.841,6.906,7.478,19.245,12.826,28.22,7.206,12.1,25.834,15.266,36.636,6.237s10.985-27.924.361-37.161c3.547-2.692,7.2-5.5,9.331-9.41s2.327-9.245-.759-12.454C296.721,143.24,287.511,147.8,281.4,152.487Zm175.4,55.267c6.173-4.186,2.56-16-4.846-16.135-4.454-4.025-13.4-2.448-18.695,1.774-10.025,7.991-14.924,22.622-9.872,34.405s20.809,18.246,31.921,11.852S467.755,214.415,456.8,207.754Z" fill="#d3d3d3"/>
      <path d="M510,255.009A254.879,254.879,0,0,1,254.991,510C132.751,510,30.612,423.986,5.764,309.187A256.679,256.679,0,0,1,0,255.009q0-5.452.226-10.85a253.9,253.9,0,0,1,57.7-150.987c3.73-4.539,7.629-8.966,11.66-13.224A254.1,254.1,0,0,1,254.991,0C395.823,0,510,114.177,510,255.009Z" fill="#424242" opacity="0.67"/>
    </g>
  </g>
</svg>
