<svg xmlns="http://www.w3.org/2000/svg" viewBox="0 0 510 510.007">
  <g id="Layer_2" data-name="Layer 2">
    <g id="Layer_1-2" data-name="Layer 1">
      <g>
        <path d="M510,255.012A254.879,254.879,0,0,1,254.991,510C132.751,510,30.612,423.989,5.764,309.19A256.686,256.686,0,0,1,0,255.012q0-5.454.226-10.851a253.9,253.9,0,0,1,57.7-150.986c3.73-4.54,7.629-8.967,11.66-13.224A254.1,254.1,0,0,1,254.991,0C395.823,0,510,114.18,510,255.012Z" fill="#b8b8b8"/>
        <path d="M235.087,236.118c1.423-2.538,4.041-4.146,5.956-6.336,8.464-9.686.735-26.312-2.353-35.791a15.719,15.719,0,0,0-12.276-10.9c-11.1-1.707-15.688,9.744-17.624,19.182-4.8,23.409-27.233,17.533-26.248,42.074l.021.508c.467,10.643-13.463,14.956-19.014,5.863-8.057-13.2-16.077-26.42-21.578-40.82-11.212-29.348-7.28-69.326,20.918-83.18,14.785-7.263,32.189-5.373,48.53-7.449s34.6-11.359,36.364-27.737L238.964,81.9c8.385-3.483,12.913-14.2,9.568-22.64C243.7,47.061,207.426,30,195.754,37.894,185.5,44.826,180.024,57.3,169.731,64.171c-16.008,10.684-37.574,4.582-56.39,8.627-16.38,3.523-29.293,14.3-39.765,27.717A14.059,14.059,0,0,1,71.3,96.133c-1.62-5.237-1.809-10.681-1.715-16.182-4.031,4.257-7.93,8.684-11.66,13.224A253.9,253.9,0,0,0,.226,244.161q6.64-10.539,13.243-21.06,10.743,7.123,21.5,14.267h0a84.382,84.382,0,0,0,12.351,24.8,9.562,9.562,0,0,0-2.642,2.1c-3.565,4.129-3.95,10.146-3.127,15.538s2.667,10.634,2.916,16.083c.248,5.407-1.086,10.874-.134,16.2,1.8,10.1,12.876,17.513,22.9,15.34s17.031-13.507,14.493-23.445c4.259,3.987,11.936.138,13.516-5.477a16.253,16.253,0,0,0-.637-9.69c8.628.417,17.406-.044,25.284,3.521l.032.058a24.563,24.563,0,0,0,2.089,14.921c-6.093,4.836-11.622,10.888-13.79,18.359s-.192,16.525,6.214,20.937a11.028,11.028,0,0,0,1,.6,14.173,14.173,0,0,0,4.214,3.687c9.26,5.238,22.833-1.357,24.438-11.874,5.277,15.755,30.619,15.223,40.4,1.791,5.227-7.178,6.965-15.89,6.571-24.815,12.226.485,36.447-37.519,26.192-43.165,6.292,3.464,12.942,7.032,20.389,5.752,4.324-.744,8.185-3.506,9.535-7.682C251.311,258.117,228.73,247.458,235.087,236.118ZM163.339,363.933l-.709,1.508-14.917-7.983c-5.569,6.535-11.213,13.185-14.741,21.013s-4.717,17.135-1.186,24.962a22.8,22.8,0,0,0,43.571-8.393,16.755,16.755,0,0,0-12.018-31.107ZM437.044,162.857c-2.574-8.986-9.94-16.142-11.837-25.294-1.242-6,.007-12.186.36-18.3,1.291-22.378-35.88-26.3-52.15-17.9-8.42,4.347-13.867,13.315-15.424,22.662s.409,19,3.972,27.785a79.3,79.3,0,0,0,29.346,35.947c6.515,4.335,14,7.762,21.828,7.583C428.647,194.984,441.316,177.769,437.044,162.857ZM281.4,152.489a17.986,17.986,0,0,0-.373-21.629c-14.118-17.252-29.351,4.545-40.82,12.307-6.644,4.5-13.057,12.682-9.416,19.831,2.529,4.963,8.69,6.679,12.87,10.361,7.841,6.905,7.478,19.245,12.826,28.22,7.206,12.094,25.834,15.266,36.636,6.237s10.985-27.925.361-37.162c3.547-2.691,7.2-5.5,9.331-9.409s2.327-9.245-.759-12.454C296.721,143.242,287.511,147.8,281.4,152.489Zm175.4,55.268c6.173-4.187,2.56-16-4.846-16.135-4.454-4.025-13.4-2.449-18.695,1.774-10.025,7.99-14.924,22.622-9.872,34.4s20.809,18.247,31.921,11.853S467.755,214.418,456.8,207.757Z" fill="#d3d3d3"/>
        <path d="M255,0V510.007c-122.252,0-224.388-86.014-249.236-200.821A256.806,256.806,0,0,1,.007,255.02q0-5.472.214-10.863A253.971,253.971,0,0,1,57.92,93.18c3.731-4.552,7.642-8.973,11.668-13.229A254.083,254.083,0,0,1,255,0Z" fill="#424242" opacity="0.67"/>
      </g>
    </g>
  </g>
</svg>
