<svg xmlns="http://www.w3.org/2000/svg" viewBox="0 0 510 510">
  <g id="Layer_2" data-name="Layer 2">
    <g id="Layer_1-2" data-name="Layer 1">
      <path d="M267.185,188.05c-.038,1.406-.064,2.815-.064,4.231a156.606,156.606,0,0,0,1.435,21.148,156.883,156.883,0,0,1-1.43-21.143C267.126,190.866,267.149,189.456,267.185,188.05Z" fill="#b8b8b8"/>
      <g>
        <path d="M428.388,255.008q0-10.551-.838-20.887a254.468,254.468,0,0,0-3.829-27.856c-.805-4.24-1.726-8.415-2.761-12.572q-1.75-7.175-3.944-14.167a253.914,253.914,0,0,0-33.822-69.5q-3.476-5.005-7.165-9.844A254.839,254.839,0,0,0,214.169,3.254a252.6,252.6,0,0,0-51.636,14.018A255.4,255.4,0,0,0,69.582,79.936c-4.026,4.256-7.921,8.693-11.652,13.229a253.778,253.778,0,0,0-57.7,151q-.222,5.4-.23,10.846a255.984,255.984,0,0,0,5.768,54.184C27.79,410.935,110.536,490.082,214.186,506.746a254.909,254.909,0,0,0,214.2-251.738Z" fill="#b8b8b8"/>
        <path d="M428.388,255.008q0-10.551-.838-20.887a254.468,254.468,0,0,0-3.829-27.856c-.805-4.24-1.726-8.415-2.761-12.572q-1.75-7.175-3.944-14.167a253.914,253.914,0,0,0-33.822-69.5q-3.476-5.005-7.165-9.844A254.839,254.839,0,0,0,214.169,3.254a252.6,252.6,0,0,0-51.636,14.018A255.4,255.4,0,0,0,69.582,79.936c-4.026,4.256-7.921,8.693-11.652,13.229a253.778,253.778,0,0,0-57.7,151q-.222,5.4-.23,10.846a255.984,255.984,0,0,0,5.768,54.184C27.79,410.935,110.536,490.082,214.186,506.746a254.909,254.909,0,0,0,214.2-251.738Z" fill="#b8b8b8"/>
        <path d="M456.8,207.744c6.179-4.175,2.563-15.991-4.848-16.122-4.454-4.027-13.394-2.449-18.686,1.758a32.127,32.127,0,0,0-9.548,12.885c-2.843,6.9-3.254,14.692-.329,21.528a22.221,22.221,0,0,0,4.158,6.327c6.968,7.511,18.85,10.65,27.774,5.522C466.433,233.249,467.764,214.416,456.8,207.744ZM302.815,161.235c2.137-3.911,2.334-9.236-.756-12.457-5.341-5.538-14.544-.986-20.658,3.7a18,18,0,0,0-.361-21.628c-14.117-17.255-29.351,4.553-40.822,12.31-6.656,4.5-13.066,12.687-9.417,19.835,2.531,4.964,8.693,6.673,12.868,10.354,7.839,6.9,7.477,19.244,12.818,28.217,7.215,12.1,25.835,15.268,36.648,6.245s10.978-27.921.362-37.157C297.03,167.957,300.7,165.146,302.815,161.235Zm134.234,1.611c-2.58-8.99-9.943-16.139-11.833-25.292-1.249-6,0-12.178.362-18.308C426.794,98,393.318,93.4,376.029,100.182a27.5,27.5,0,0,0-2.613,1.167C365,105.7,359.562,114.661,358,124.012s.411,19.014,3.977,27.79a79.291,79.291,0,0,0,29.335,35.941c6.524,4.339,14,7.774,21.824,7.593a22.138,22.138,0,0,0,7.823-1.643C432.579,189.009,440.566,175.155,437.049,162.846Zm-253.611,211.2a17.334,17.334,0,0,0-20.1-10.107l-.707,1.495q-7.469-3.969-14.922-7.971c-5.571,6.525-11.208,13.181-14.742,21-3.516,7.839-4.716,17.141-1.183,24.964a22.8,22.8,0,0,0,43.567-8.382C182.7,391.329,186.412,381.715,183.438,374.041ZM162.9,126.707c14.774-7.264,32.178-5.374,48.53-7.445,16.335-2.087,34.594-11.372,36.369-27.74-2.942-3.205-5.884-6.426-8.825-9.631,8.381-3.484,12.917-14.2,9.564-22.646-4.831-12.194-41.1-29.253-52.77-21.364-10.255,6.935-15.744,19.408-26.031,26.278-16.007,10.682-37.569,4.585-56.386,8.628-16.385,3.517-29.3,14.3-39.771,27.724a14.2,14.2,0,0,1-2.267-4.388c-1.627-5.242-1.808-10.682-1.726-16.188-4.026,4.257-7.921,8.694-11.652,13.23a253.778,253.778,0,0,0-57.7,151c4.421-7.034,8.825-14.035,13.246-21.069q10.724,7.125,21.5,14.265a85.368,85.368,0,0,0,5.16,12.95,82.55,82.55,0,0,0,7.2,11.849,9.412,9.412,0,0,0-2.646,2.1c-3.566,4.125-3.96,10.139-3.122,15.53.822,5.39,2.662,10.633,2.909,16.089.246,5.407-1.085,10.879-.132,16.2,1.808,10.09,12.868,17.5,22.893,15.333s17.042-13.509,14.5-23.435c4.256,3.977,11.947.131,13.525-5.489a16.169,16.169,0,0,0-.641-9.68c8.628.411,17.4-.049,25.292,3.517,0,.016.017.033.017.066a24.539,24.539,0,0,0,2.1,14.906c-6.1,4.848-11.635,10.895-13.8,18.373-2.153,7.461-.181,16.516,6.228,20.937.312.214.658.411.986.592a14.027,14.027,0,0,0,4.224,3.681c9.252,5.242,22.827-1.348,24.437-11.866,5.276,15.761,30.617,15.218,40.4,1.792,5.226-7.182,6.969-15.892,6.574-24.816,12.227.477,36.451-37.519,26.2-43.172,6.294,3.467,12.934,7.034,20.4,5.752,4.322-.74,8.184-3.5,9.532-7.675,4.125-12.786-18.456-23.452-12.1-34.791,1.43-2.531,4.043-4.141,5.949-6.327,8.464-9.7.74-26.311-2.35-35.794a15.739,15.739,0,0,0-12.276-10.912c-11.093-1.709-15.678,9.745-17.618,19.195-4.8,23.4-27.231,17.519-26.245,42.071,0,.165,0,.329.017.51.46,10.633-13.46,14.955-19.015,5.85-8.052-13.2-16.072-26.409-21.578-40.805C130.766,180.545,134.694,140.561,162.9,126.707Z" fill="#d3d3d3"/>
        <path d="M254.992,0a257.278,257.278,0,0,0-40.823,3.254,254.839,254.839,0,0,1,161.86,96.929q3.7,4.831,7.165,9.844a253.914,253.914,0,0,1,33.822,69.5q2.193,7,3.944,14.167c1.035,4.157,1.956,8.332,2.761,12.572a254.468,254.468,0,0,1,3.829,27.856q.838,10.327.838,20.887a254.909,254.909,0,0,1-214.2,251.738A256.787,256.787,0,0,0,254.992,510,254.845,254.845,0,0,0,510,255.008C510,114.168,395.832,0,254.992,0Z" fill="#424242" opacity="0.67"/>
      </g>
    </g>
  </g>
</svg>
