<svg xmlns="http://www.w3.org/2000/svg" viewBox="0 0 510 509.933">
  <g id="Layer_2" data-name="Layer 2">
    <g id="Layer_1-2" data-name="Layer 1">
      <path d="M241.825,10.144q2.409.254,4.8.584C245.029,10.511,243.431,10.312,241.825,10.144Z" fill="#b8b8b8"/>
      <path d="M231.75,9.422q1.844.073,3.676.19Q233.593,9.5,231.75,9.422Z" fill="#b8b8b8"/>
      <path d="M236.716,9.694c1.626.117,3.247.254,4.859.421Q239.157,9.866,236.716,9.694Z" fill="#b8b8b8"/>
      <path d="M241.575,10.115l.25.029Z" fill="#424242" opacity="0.67"/>
      <path d="M235.426,9.612c.43.028.861.051,1.29.082C236.287,9.663,235.856,9.64,235.426,9.612Z" fill="#424242" opacity="0.67"/>
      <path d="M246.919,10.764c-.1-.014-.2-.023-.3-.036.1.013.2.028.3.042Z" fill="#424242" opacity="0.67"/>
      <path d="M230.327,9.368c.475.015.949.035,1.423.054C231.276,9.4,230.8,9.383,230.327,9.368Z" fill="#424242" opacity="0.67"/>
      <g>
        <path d="M255.026,0a256.42,256.42,0,0,0-45.368,4.042Q201.1,5.58,192.739,7.681a253.373,253.373,0,0,0-30.156,9.591q-10.566,4.116-20.652,9.138A255.208,255.208,0,0,0,95.648,55.957c-.066.053-.134.1-.2.155-1.416,1.138-2.808,2.3-4.2,3.47-.405.34-.82.669-1.223,1.011-.449.382-.885.779-1.333,1.165Q81.38,68.064,74.543,74.893q-2.48,2.489-4.893,5.044c-.182.193-.357.4-.538.589-3.837,4.079-7.561,8.3-11.122,12.633q-7.377,8.976-13.924,18.623A253.575,253.575,0,0,0,.3,244.124c-.054,1.3-.088,2.6-.122,3.9-.058,2.311-.1,4.627-.1,6.961a257.689,257.689,0,0,0,2.35,34.741q1.34,9.833,3.406,19.421C30.679,423.926,132.8,509.928,255.026,509.928h0V0Z" fill="#b8b8b8"/>
        <path d="M234.828,236.456c1.422-2.538,4.04-4.145,5.955-6.336,8.463-9.684.734-26.307-2.353-35.785a15.715,15.715,0,0,0-12.274-10.9c-11.1-1.706-15.686,9.743-17.621,19.18-4.8,23.406-27.229,17.531-26.245,42.068.007.17.014.339.022.508.466,10.641-13.462,14.954-19.012,5.862-8.056-13.2-16.074-26.417-21.575-40.814-11.21-29.344-7.279-69.316,20.915-83.168,14.783-7.263,32.185-5.372,48.524-7.449s34.593-11.357,36.358-27.733q-4.41-4.815-8.818-9.631c8.384-3.483,12.912-14.2,9.567-22.637-4.832-12.193-41.1-29.25-52.77-21.359-10.251,6.931-15.728,19.4-26.02,26.273-16,10.683-37.569,4.581-56.382,8.626C96.721,76.681,83.81,87.452,73.34,100.872a14.042,14.042,0,0,1-2.274-4.381c-1.62-5.237-1.809-10.68-1.714-16.18-4.031,4.257-7.93,8.683-11.659,13.222A253.85,253.85,0,0,0,0,244.5q6.639-10.537,13.241-21.058,10.742,7.123,21.5,14.265h0A84.346,84.346,0,0,0,47.092,262.5a9.562,9.562,0,0,0-2.642,2.1c-3.564,4.128-3.95,10.145-3.127,15.536s2.667,10.633,2.916,16.081c.247,5.406-1.086,10.872-.134,16.2,1.8,10.095,12.874,17.511,22.9,15.339s17.029-13.506,14.491-23.443c4.259,3.987,11.934.139,13.515-5.476a16.266,16.266,0,0,0-.637-9.689c8.627.417,17.4-.043,25.281,3.521l.031.058a24.556,24.556,0,0,0,2.089,14.919c-6.092,4.835-11.621,10.886-13.788,18.356s-.193,16.523,6.213,20.935a11.642,11.642,0,0,0,1,.6,14.2,14.2,0,0,0,4.214,3.686c9.259,5.237,22.829-1.356,24.434-11.872,5.277,15.752,30.615,15.22,40.394,1.791,5.227-7.178,6.964-15.888,6.57-24.812,12.224.485,36.442-37.514,26.189-43.159,6.291,3.464,12.94,7.031,20.385,5.751,4.324-.744,8.184-3.5,9.534-7.68C251.05,258.452,228.472,247.794,234.828,236.456Zm-71.738,127.8-.709,1.508-14.915-7.982c-5.568,6.534-11.211,13.183-14.739,21.01s-4.716,17.133-1.186,24.959a22.8,22.8,0,0,0,43.565-8.392,16.753,16.753,0,0,0-12.016-31.1ZM436.756,163.205c-2.574-8.984-9.938-16.139-11.835-25.291-1.242-5.995.007-12.183.36-18.3,1.291-22.374-35.875-26.3-52.143-17.9-8.419,4.347-13.865,13.314-15.421,22.659s.409,19,3.971,27.781A79.293,79.293,0,0,0,391.029,188.1c6.515,4.334,14,7.761,21.826,7.582C428.361,195.327,441.028,178.116,436.756,163.205ZM281.137,152.839a17.983,17.983,0,0,0-.373-21.626c-14.115-17.25-29.347,4.544-40.814,12.305-6.643,4.5-13.055,12.68-9.414,19.828,2.528,4.963,8.688,6.679,12.868,10.36,7.839,6.9,7.477,19.242,12.824,28.216,7.2,12.093,25.83,15.263,36.631,6.236s10.983-27.921.361-37.156c3.546-2.692,7.2-5.5,9.329-9.409s2.327-9.244-.759-12.452C296.454,143.593,287.245,148.154,281.137,152.839ZM456.511,208.1c6.172-4.186,2.559-16-4.846-16.133-4.453-4.024-13.4-2.448-18.692,1.774-10.023,7.989-14.922,22.619-9.871,34.4s20.807,18.244,31.917,11.85S467.463,214.759,456.511,208.1Z" fill="#d3d3d3"/>
        <path d="M95.648,55.957A255.208,255.208,0,0,1,141.931,26.41,255.1,255.1,0,0,0,95.648,55.957Z" fill="#b8b8b8"/>
        <path d="M74.543,74.893q-2.481,2.489-4.893,5.044c-.183.193-.357.4-.538.589.181-.193.356-.4.538-.589Q72.062,77.381,74.543,74.893Z" fill="#b8b8b8"/>
        <path d="M192.739,7.681q8.353-2.1,16.919-3.639Q201.1,5.58,192.739,7.681Z" fill="#b8b8b8"/>
        <path d="M10.5,182.578a254,254,0,0,1,33.565-70.8A253.891,253.891,0,0,0,10.5,182.578Z" fill="#b8b8b8"/>
        <path d="M88.7,61.758c.448-.386.884-.783,1.333-1.165C89.579,60.975,89.142,61.372,88.7,61.758Z" fill="#b8b8b8"/>
        <path d="M91.251,59.582c1.39-1.167,2.782-2.332,4.2-3.47C94.033,57.25,92.641,58.415,91.251,59.582Z" fill="#b8b8b8"/>
        <path d="M255.03,0V509.928A254.844,254.844,0,0,0,510,254.974C510,114.162,395.842,0,255.03,0Z" fill="#424242" opacity="0.67"/>
        <path d="M5.835,309.144q-2.067-9.582-3.406-19.421,1.337,9.833,3.4,19.417C30.674,423.931,132.8,509.933,255.03,509.933v0h0C132.8,509.928,30.679,423.926,5.835,309.144Z" fill="#424242" opacity="0.67"/>
        <path d="M90.028,60.593c.4-.342.818-.671,1.223-1.011C90.846,59.922,90.431,60.251,90.028,60.593Z" fill="#424242" opacity="0.67"/>
        <path d="M192.739,7.681a253.424,253.424,0,0,0-30.152,9.586q-10.567,4.119-20.656,9.143,10.084-5,20.652-9.138A253.373,253.373,0,0,1,192.739,7.681Z" fill="#424242" opacity="0.67"/>
        <path d="M74.543,74.893Q81.362,68.056,88.7,61.758,81.38,68.064,74.543,74.893Z" fill="#424242" opacity="0.67"/>
        <path d="M95.449,56.112c.065-.052.133-.1.2-.155C95.582,56.01,95.514,56.06,95.449,56.112Z" fill="#424242" opacity="0.67"/>
        <path d="M69.112,80.526c-3.834,4.077-7.567,8.293-11.128,12.638q-7.374,8.975-13.918,18.618,6.547-9.63,13.924-18.623C61.551,88.826,65.275,84.605,69.112,80.526Z" fill="#424242" opacity="0.67"/>
        <path d="M10.5,182.578A254.358,254.358,0,0,0,.293,244.12c-.054,1.3-.085,2.6-.117,3.9.034-1.3.068-2.6.122-3.9A254.289,254.289,0,0,1,10.5,182.578Z" fill="#424242" opacity="0.67"/>
      </g>
    </g>
  </g>
</svg>
