<svg xmlns="http://www.w3.org/2000/svg" viewBox="0 0 510 509.76">
  <g id="Layer_2" data-name="Layer 2">
    <g id="Layer_1-2" data-name="Layer 1">
      <g>
        <path d="M128.62,409.625q-3.7-4.83-7.162-9.84a253.808,253.808,0,0,1-33.806-69.467q-2.192-7-3.942-14.16c-1.035-4.155-1.954-8.328-2.759-12.566a254.523,254.523,0,0,1-3.828-27.842q-.837-10.324-.838-20.878A254.8,254.8,0,0,1,290.371,3.252V2.44l-.492-.069q-3.921-.538-7.877-.959c-.137-.015-.273-.033-.41-.047-2.648-.275-5.311-.5-7.981-.692-.7-.051-1.414-.089-2.121-.134q-3.009-.192-6.037-.313C264.674.2,263.9.162,263.114.138,260.454.055,257.787,0,255.1,0A253.993,253.993,0,0,0,69.787,79.912c-4.029,4.256-7.927,8.68-11.655,13.218A254.144,254.144,0,0,0,.461,244.047c-.047,1.035-.07,2.075-.1,3.114-.077,2.568-.129,5.142-.129,7.73,0,.405.014.806.016,1.211a256.749,256.749,0,0,0,4.022,44.109c.531,2.96,1.095,5.91,1.728,8.835C30.834,423.784,132.924,509.76,255.1,509.76q4.444,0,8.85-.152c.231-.008.46-.024.691-.033q3.912-.142,7.793-.4c.706-.048,1.408-.113,2.113-.166,2.1-.158,4.2-.332,6.288-.541.9-.091,1.806-.2,2.709-.3,1.876-.208,3.749-.429,5.614-.678.4-.054.806-.115,1.21-.171v-.813A254.824,254.824,0,0,1,128.62,409.625Z" fill="#b8b8b8"/>
        <path d="M234.754,236.684c1.422-2.537,4.04-4.143,5.953-6.333,8.461-9.682.735-26.3-2.351-35.775a15.712,15.712,0,0,0-12.27-10.9c-11.1-1.706-15.681,9.74-17.616,19.174-4.8,23.4-27.221,17.525-26.237,42.055.007.17.014.339.022.508.466,10.638-13.458,14.949-19.006,5.86-8.054-13.195-16.069-26.409-21.568-40.8-11.207-29.336-7.277-69.295,20.908-83.143,14.778-7.26,32.175-5.37,48.509-7.446s34.582-11.354,36.346-27.724l-8.815-9.629c8.382-3.481,12.908-14.192,9.564-22.63-4.83-12.189-41.087-29.241-52.754-21.352-10.247,6.929-15.722,19.4-26.011,26.265-16,10.679-37.557,4.58-56.364,8.624-16.373,3.52-29.28,14.288-39.747,27.7a14.069,14.069,0,0,1-2.274-4.38c-1.619-5.235-1.807-10.677-1.713-16.175-4.03,4.256-7.927,8.68-11.655,13.218A253.77,253.77,0,0,0,0,244.724q6.637-10.534,13.237-21.051,10.739,7.12,21.494,14.26h0a84.321,84.321,0,0,0,12.346,24.785,9.557,9.557,0,0,0-2.641,2.1c-3.563,4.126-3.948,10.141-3.126,15.531s2.666,10.629,2.915,16.075c.247,5.4-1.085,10.869-.134,16.195,1.8,10.092,12.87,17.5,22.89,15.333S84,314.45,81.468,304.516c4.257,3.986,11.93.139,13.51-5.474a16.256,16.256,0,0,0-.637-9.686c8.624.417,17.4-.043,25.273,3.52l.032.058a24.549,24.549,0,0,0,2.088,14.914c-6.091,4.833-11.617,10.883-13.784,18.35s-.192,16.519,6.211,20.929a11.38,11.38,0,0,0,1,.6,14.206,14.206,0,0,0,4.213,3.686c9.256,5.235,22.822-1.357,24.427-11.869,5.274,15.747,30.6,15.215,40.38,1.79,5.225-7.175,6.962-15.883,6.569-24.8,12.22.485,36.43-37.5,26.18-43.145,6.289,3.462,12.936,7.029,20.379,5.749,4.323-.743,8.182-3.5,9.531-7.678C250.971,258.673,228.4,248.019,234.754,236.684ZM163.039,364.441l-.709,1.508-14.91-7.98c-5.567,6.532-11.208,13.179-14.734,21s-4.715,17.127-1.186,24.951a22.795,22.795,0,0,0,43.552-8.39,16.748,16.748,0,0,0-12.013-31.093ZM436.62,163.457c-2.573-8.982-9.936-16.135-11.831-25.283-1.242-5.994.006-12.18.359-18.293,1.29-22.367-35.864-26.288-52.127-17.892-8.416,4.345-13.86,13.309-15.416,22.652s.409,18.995,3.97,27.771a79.27,79.27,0,0,0,29.332,35.931c6.513,4.333,14,7.759,21.819,7.58C428.227,195.569,440.89,178.362,436.62,163.457ZM281.049,153.093a17.977,17.977,0,0,0-.372-21.619c-14.112-17.245-29.338,4.543-40.8,12.3-6.641,4.5-13.051,12.677-9.411,19.822,2.527,4.961,8.685,6.677,12.864,10.357,7.837,6.9,7.474,19.236,12.82,28.207,7.2,12.089,25.822,15.259,36.619,6.234s10.98-27.912.361-37.145c3.545-2.69,7.194-5.5,9.327-9.405s2.326-9.241-.759-12.448C296.361,143.851,287.155,148.41,281.049,153.093Zm175.319,55.243c6.171-4.185,2.559-16-4.844-16.127-4.452-4.024-13.392-2.448-18.686,1.772-10.021,7.987-14.917,22.612-9.868,34.389s20.8,18.239,31.907,11.848S467.317,214.994,456.368,208.336Z" fill="#d3d3d3"/>
        <path d="M290.371,2.44v.812A254.8,254.8,0,0,0,76.285,254.872q0,10.545.838,20.878a254.523,254.523,0,0,0,3.828,27.842c.805,4.238,1.724,8.411,2.759,12.566q1.749,7.17,3.942,14.16a253.808,253.808,0,0,0,33.806,69.467q3.474,5,7.162,9.84a254.824,254.824,0,0,0,161.751,96.882v.813A254.713,254.713,0,0,0,510,254.894C510,126.092,414.448,19.616,290.371,2.44Z" fill="#424242" opacity="0.67"/>
      </g>
    </g>
  </g>
</svg>
